<mxfile host="app.diagrams.net" modified="2024-01-02T06:19:10.736Z" agent="Mozilla/5.0 (Windows NT 10.0; Win64; x64; rv:121.0) Gecko/20100101 Firefox/121.0" etag="pJzkAhW0cYu5SlQG99XQ" version="22.1.16" type="github">
  <diagram name="Page-1" id="0T50kvCg7JCrsGowZ0Ff">
    <mxGraphModel dx="1450" dy="603" grid="1" gridSize="10" guides="1" tooltips="1" connect="1" arrows="1" fold="1" page="1" pageScale="1" pageWidth="850" pageHeight="1100" math="0" shadow="0">
      <root>
        <mxCell id="0" />
        <mxCell id="1" parent="0" />
        <mxCell id="3FGBhueQCdPl_l66B77o-1" value="EhCacheCommunicator (CRUD)" style="ellipse;whiteSpace=wrap;html=1;" vertex="1" parent="1">
          <mxGeometry x="297.5" y="220" width="190" height="80" as="geometry" />
        </mxCell>
        <mxCell id="3FGBhueQCdPl_l66B77o-2" value="CacheCommunicator" style="ellipse;whiteSpace=wrap;html=1;" vertex="1" parent="1">
          <mxGeometry x="325" y="40" width="135" height="80" as="geometry" />
        </mxCell>
        <mxCell id="3FGBhueQCdPl_l66B77o-3" value="" style="endArrow=classic;html=1;rounded=0;entryX=0.5;entryY=0;entryDx=0;entryDy=0;exitX=0.5;exitY=1;exitDx=0;exitDy=0;" edge="1" parent="1" source="3FGBhueQCdPl_l66B77o-2" target="3FGBhueQCdPl_l66B77o-1">
          <mxGeometry width="50" height="50" relative="1" as="geometry">
            <mxPoint x="330" y="180" as="sourcePoint" />
            <mxPoint x="380" y="130" as="targetPoint" />
          </mxGeometry>
        </mxCell>
      </root>
    </mxGraphModel>
  </diagram>
</mxfile>
